/* XPM */
static char * fcnclogo_xpm[] = {
"48 48 33 1",
" 	c #000000",
".	c #575757",
"+	c #B10303",
"@	c #0B0B06",
"#	c #AC301B",
"$	c #A75A32",
"%	c #A37E46",
"&	c #A09351",
"*	c #968E54",
"=	c #8E8754",
"-	c #494426",
";	c #1A190E",
">	c #726A3B",
",	c #A09653",
"'	c #B00906",
")	c #857D45",
"!	c #A3995B",
"~	c #ABA473",
"{	c #B4AF8F",
"]	c #BBB9A5",
"^	c #BEBCAD",
"/	c #5F5931",
"(	c #060603",
"_	c #121109",
":	c #9C9251",
"<	c #A39A5D",
"[	c #AEA87D",
"}	c #A56B3C",
"|	c #615F57",
"1	c #7D7755",
"2	c #312E19",
"3	c #92894C",
"4	c #867D45",
"                                                ",
"             ............                       ",
"            ..............                      ",
"            ..++++++++++..                      ",
"           ..++++++++++++..                     ",
"           ..++++   +++++..                     ",
"          ..++++       +++..                    ",
"         ...++       +  ++..                    ",
"         ..++   ++    + +++..                   ",
"        ...+   ++++++   +++..                   ",
"        ..++  +++++++   ++++..                  ",
"       ...    ++++++  +  +++..                  ",
"       ..+     ++++++     +++..                 ",
"      ..++++    +++++    ++++..                 ",
"     ...++++   ++++++    +++++..                ",
"     ..+++++++  +++++   @#$%&&*=-@              ",
"    ...+++++++++++++++;>,,,,,,,,,,>;            ",
"    ..++++++++++++++'),,,!~{]^]{~!,,/(          ",
"   ...++++++++++++ _:,,<::^^^^^^^^{<,:_         ",
"   ..++++++++++++ _,,,~^^::^^^^^^^^^~,,_        ",
"    ..+++++++    (:,,[:^^:::^^^^^^^^^[,:(       ",
"    ..+++++++++  ),,~::::^^::^^^^^^^^^~,/       ",
"     ..+++++++  ;,,<^^^^::^^:::^^^^^^^^<,;      ",
"     ..+++++++++},,{^^^^^:::::::^^^^^^^{,>      ",
"      .........|,,!:::^^:::::::::^^^^^^^!,@     ",
"      .........1,,~:::::::::::::::^^^^^^~,2     ",
"               ),,{^:::::::::::::::^^^^^{,/     ",
"               3,,]^^:::::::::::::::^^^^],4     ",
"               :,,^^^^^:::::::::::::^^^^^,:     ",
"               :,,]^^^^^^:::::::::::^^^^],:     ",
"               3,,{^^^^^^^^:::::^::::^^^{,4     ",
"               ),,~^^^^^^^^:::::^^^::^^^~,/     ",
"               -,,!^^^^^^^^::^^^^^^^^^^^!,2     ",
"               @,,,{^^^^^^:::^^^^^^^^^^{,,@     ",
"                >,,<^^^^^^::::^^^^^^^^^<,>      ",
"                ;,,,~^^^^::^:::^^^^^^^~,,;      ",
"                 /,,,[^^^:^^^::^^^^^^[,,/       ",
"                 (:,,,~^:^^^^^^^^^^^~,,:(       ",
"                  _,,,,<{^^^^^^^^^{<,,,_        ",
"                   _:,,,,!~{]^]{~!,,,:_         ",
"                    (/,,,,,,,,,,,,,,/(          ",
"                      ;>,,,,,,,,,,>;            ",
"                        @2/4::4/2@              ",
"                                                ",
"                                                ",
"                                                ",
"                                                ",
"                                                "};
