<?xml version="1.0" standalone="yes"?>
<svg width="32" height="32">
<path style="fill:#575757; stroke:none;" d="M11 17C8.94089 16.0361 5.4363 15.5715 5.01852 12.8519C4.40942 8.88683 9.37245 1.20451 13.9097 2.66204C16.9892 3.65126 18.4838 7.45053 20 10C22.5718 -12.888 -13.0434 16.7151 11 17z"/>
<path style="fill:#b10303; stroke:none;" d="M7 7L11 5C9.99318 7.65496 10.0083 8.33026 11 11L6 8C3.4179 13.4811 5.09244 15.806 11 16C10.5279 14.5838 10.1863 14.1863 9 13C13.328 12.0555 13.65 10.1017 14 6C12.5434 4.89658 12.1034 4.45663 11 3C14.5075 4.92054 16.3506 8.6798 20 10C17.3475 3.69477 10.7359 -1.91618 7 7z"/>
<path style="fill:#978f55; stroke:none;" d="M17 10C18.506 10.683 19.3148 10.8259 21 11C19.494 10.317 18.6852 10.1741 17 10z"/>
<path style="fill:#a19753; stroke:none;" d="M25 13C29.9553 25.937 14.7595 30.6751 12 17C14.0034 18.273 15.7774 19.1724 18 20L17 24C19.7863 21.9901 21.5209 20.9365 25 21C23.4484 18.0571 19.0194 11.0227 14.8704 11.8812C7.44815 13.4169 10.4216 24.8631 15.1883 27.5394C23.8571 32.4065 33.7229 18.7874 25 13z"/>
<path style="fill:#bfbdad; stroke:none;" d="M17 11C18.9096 14.8034 22.3965 17.6185 25 21C21.5089 20.7311 19.9646 21.0501 18 24L18 20L12 17C14.4423 38.927 39.7964 13.3541 17 11z"/>
<path style="fill:#a3995b; stroke:none;" d="M21 11C22.458 12.0811 23.248 12.4361 25 13C23.457 11.7333 22.9522 11.5108 21 11z"/>
<path style="fill:#5f5931; stroke:none;" d="M24 11L25 12L24 11z"/>
<path style="fill:#bfbdad; stroke:none;" d="M15 13C15.6498 14.2997 15.1468 14 17 14L13 15C15.562 16.568 18.2046 14.9775 15 13z"/>
<path style="fill:#9d9351; stroke:none;" d="M19 23L19 25L21 25L21 23L19 23z"/>
<path style="fill:#5f5931; stroke:none;" d="M11 24L12 25L11 24z"/>
</svg>
